<mxfile host="65bd71144e">
    <diagram id="vmGSrUCs7UgJOY4CC2sG" name="Страница 1">
        <mxGraphModel dx="2170" dy="1849" grid="0" gridSize="10" guides="1" tooltips="1" connect="1" arrows="1" fold="1" page="0" pageScale="1" pageWidth="827" pageHeight="1169" background="#808080" math="0" shadow="0">
            <root>
                <mxCell id="0"/>
                <mxCell id="1" parent="0"/>
                <mxCell id="2" value="&lt;font style=&quot;font-size: 16px;&quot;&gt;Сервер&lt;/font&gt;" style="rounded=0;whiteSpace=wrap;html=1;fillColor=none;labelBackgroundColor=none;" parent="1" vertex="1">
                    <mxGeometry x="380" y="130" width="120" height="60" as="geometry"/>
                </mxCell>
                <mxCell id="3" value="&lt;font style=&quot;font-size: 16px;&quot;&gt;Клиент&lt;/font&gt;" style="rounded=0;whiteSpace=wrap;html=1;labelBackgroundColor=none;fillColor=none;" parent="1" vertex="1">
                    <mxGeometry x="80" y="130" width="120" height="60" as="geometry"/>
                </mxCell>
                <mxCell id="7" value="" style="shape=flexArrow;endArrow=classic;html=1;exitX=0.5;exitY=1;exitDx=0;exitDy=0;labelBackgroundColor=none;rounded=0;" parent="1" source="3" edge="1">
                    <mxGeometry width="50" height="50" relative="1" as="geometry">
                        <mxPoint x="620" y="610" as="sourcePoint"/>
                        <mxPoint x="140" y="760" as="targetPoint"/>
                    </mxGeometry>
                </mxCell>
                <mxCell id="8" value="" style="shape=flexArrow;endArrow=classic;html=1;exitX=0.5;exitY=1;exitDx=0;exitDy=0;labelBackgroundColor=none;rounded=0;" parent="1" source="2" edge="1">
                    <mxGeometry width="50" height="50" relative="1" as="geometry">
                        <mxPoint x="340" y="610" as="sourcePoint"/>
                        <mxPoint x="440" y="760" as="targetPoint"/>
                        <Array as="points">
                            <mxPoint x="440" y="340"/>
                        </Array>
                    </mxGeometry>
                </mxCell>
                <mxCell id="9" value="Пополнение данных&lt;br&gt;&amp;nbsp;успеваемости" style="endArrow=classic;html=1;fontSize=16;labelBackgroundColor=none;rounded=0;" parent="1" edge="1">
                    <mxGeometry y="20" width="50" height="50" relative="1" as="geometry">
                        <mxPoint x="140" y="240" as="sourcePoint"/>
                        <mxPoint x="440" y="240" as="targetPoint"/>
                        <mxPoint as="offset"/>
                    </mxGeometry>
                </mxCell>
                <mxCell id="10" value="&lt;font style=&quot;font-size: 16px;&quot;&gt;База данных&lt;/font&gt;" style="rounded=0;whiteSpace=wrap;html=1;fillColor=none;labelBackgroundColor=none;" parent="1" vertex="1">
                    <mxGeometry x="680" y="130" width="120" height="60" as="geometry"/>
                </mxCell>
                <mxCell id="11" value="" style="shape=flexArrow;endArrow=classic;html=1;exitX=0.5;exitY=1;exitDx=0;exitDy=0;labelBackgroundColor=none;rounded=0;" parent="1" source="10" edge="1">
                    <mxGeometry width="50" height="50" relative="1" as="geometry">
                        <mxPoint x="640" y="610" as="sourcePoint"/>
                        <mxPoint x="740" y="760" as="targetPoint"/>
                    </mxGeometry>
                </mxCell>
                <mxCell id="13" value="" style="endArrow=classic;html=1;fontSize=16;labelBackgroundColor=none;rounded=0;" parent="1" edge="1">
                    <mxGeometry width="50" height="50" relative="1" as="geometry">
                        <mxPoint x="440" y="280" as="sourcePoint"/>
                        <mxPoint x="740" y="280" as="targetPoint"/>
                    </mxGeometry>
                </mxCell>
                <mxCell id="14" value="Сохранение данных" style="edgeLabel;html=1;align=center;verticalAlign=middle;resizable=0;points=[];fontSize=16;rounded=0;labelBackgroundColor=none;" parent="13" vertex="1" connectable="0">
                    <mxGeometry x="-0.3114" y="-1" relative="1" as="geometry">
                        <mxPoint x="47" y="-21" as="offset"/>
                    </mxGeometry>
                </mxCell>
                <mxCell id="15" value="Статус" style="endArrow=classic;html=1;fontSize=16;labelBackgroundColor=none;rounded=0;" parent="1" edge="1">
                    <mxGeometry y="-20" width="50" height="50" relative="1" as="geometry">
                        <mxPoint x="440" y="320" as="sourcePoint"/>
                        <mxPoint x="140" y="320" as="targetPoint"/>
                        <mxPoint as="offset"/>
                    </mxGeometry>
                </mxCell>
                <mxCell id="16" value="" style="endArrow=classic;html=1;fontSize=16;labelBackgroundColor=none;rounded=0;" parent="1" edge="1">
                    <mxGeometry width="50" height="50" relative="1" as="geometry">
                        <mxPoint x="440" y="360" as="sourcePoint"/>
                        <mxPoint x="740" y="360" as="targetPoint"/>
                    </mxGeometry>
                </mxCell>
                <mxCell id="17" value="" style="endArrow=classic;html=1;fontSize=16;labelBackgroundColor=none;rounded=0;" parent="1" edge="1">
                    <mxGeometry width="50" height="50" relative="1" as="geometry">
                        <mxPoint x="740" y="560" as="sourcePoint"/>
                        <mxPoint x="440" y="560" as="targetPoint"/>
                    </mxGeometry>
                </mxCell>
                <mxCell id="18" value="Заполнение пропусков&lt;br&gt;актуальной моделью" style="edgeLabel;html=1;align=center;verticalAlign=middle;resizable=0;points=[];fontSize=16;rounded=0;labelBackgroundColor=none;" parent="17" vertex="1" connectable="0">
                    <mxGeometry x="0.1551" relative="1" as="geometry">
                        <mxPoint x="23" y="-60" as="offset"/>
                    </mxGeometry>
                </mxCell>
                <mxCell id="19" value="" style="endArrow=classic;html=1;fontSize=16;labelBackgroundColor=none;rounded=0;" parent="1" edge="1">
                    <mxGeometry width="50" height="50" relative="1" as="geometry">
                        <mxPoint x="140" y="420" as="sourcePoint"/>
                        <mxPoint x="440" y="420" as="targetPoint"/>
                    </mxGeometry>
                </mxCell>
                <mxCell id="20" value="Обновление данных" style="edgeLabel;html=1;align=center;verticalAlign=middle;resizable=0;points=[];fontSize=16;rounded=0;labelBackgroundColor=none;" parent="19" vertex="1" connectable="0">
                    <mxGeometry x="-0.1551" y="1" relative="1" as="geometry">
                        <mxPoint x="23" y="-19" as="offset"/>
                    </mxGeometry>
                </mxCell>
                <mxCell id="26" value="" style="endArrow=classic;html=1;fontSize=16;labelBackgroundColor=none;rounded=0;" parent="1" edge="1">
                    <mxGeometry width="50" height="50" relative="1" as="geometry">
                        <mxPoint x="440" y="530" as="sourcePoint"/>
                        <mxPoint x="740" y="530" as="targetPoint"/>
                    </mxGeometry>
                </mxCell>
                <mxCell id="27" value="" style="endArrow=classic;html=1;fontSize=16;labelBackgroundColor=none;rounded=0;" parent="1" edge="1">
                    <mxGeometry width="50" height="50" relative="1" as="geometry">
                        <mxPoint x="740" y="390" as="sourcePoint"/>
                        <mxPoint x="440" y="390" as="targetPoint"/>
                    </mxGeometry>
                </mxCell>
                <mxCell id="28" value="Заполнение пропусков&lt;br&gt;актуальной моделью" style="edgeLabel;html=1;align=center;verticalAlign=middle;resizable=0;points=[];fontSize=16;rounded=0;labelBackgroundColor=none;" parent="27" vertex="1" connectable="0">
                    <mxGeometry x="0.1551" relative="1" as="geometry">
                        <mxPoint x="23" y="-60" as="offset"/>
                    </mxGeometry>
                </mxCell>
                <mxCell id="29" value="" style="endArrow=classic;html=1;fontSize=16;labelBackgroundColor=none;rounded=0;" parent="1" edge="1">
                    <mxGeometry width="50" height="50" relative="1" as="geometry">
                        <mxPoint x="440" y="450" as="sourcePoint"/>
                        <mxPoint x="740" y="450" as="targetPoint"/>
                    </mxGeometry>
                </mxCell>
                <mxCell id="30" value="Обновление данных" style="edgeLabel;html=1;align=center;verticalAlign=middle;resizable=0;points=[];fontSize=16;rounded=0;labelBackgroundColor=none;" parent="29" vertex="1" connectable="0">
                    <mxGeometry x="-0.4356" y="-1" relative="1" as="geometry">
                        <mxPoint x="65" y="-21" as="offset"/>
                    </mxGeometry>
                </mxCell>
                <mxCell id="31" value="" style="endArrow=classic;html=1;fontSize=16;labelBackgroundColor=none;rounded=0;" parent="1" edge="1">
                    <mxGeometry width="50" height="50" relative="1" as="geometry">
                        <mxPoint x="440" y="490" as="sourcePoint"/>
                        <mxPoint x="140" y="490" as="targetPoint"/>
                    </mxGeometry>
                </mxCell>
                <mxCell id="32" value="Статус" style="edgeLabel;html=1;align=center;verticalAlign=middle;resizable=0;points=[];fontSize=16;rounded=0;labelBackgroundColor=none;" parent="31" vertex="1" connectable="0">
                    <mxGeometry x="0.1275" y="-3" relative="1" as="geometry">
                        <mxPoint x="19" y="-17" as="offset"/>
                    </mxGeometry>
                </mxCell>
                <mxCell id="33" value="" style="endArrow=classic;html=1;fontSize=16;labelBackgroundColor=none;rounded=0;" parent="1" edge="1">
                    <mxGeometry width="50" height="50" relative="1" as="geometry">
                        <mxPoint x="140" y="600" as="sourcePoint"/>
                        <mxPoint x="440" y="600" as="targetPoint"/>
                    </mxGeometry>
                </mxCell>
                <mxCell id="34" value="Запрос данных" style="edgeLabel;html=1;align=center;verticalAlign=middle;resizable=0;points=[];fontSize=16;rounded=0;labelBackgroundColor=none;" parent="33" vertex="1" connectable="0">
                    <mxGeometry x="0.4168" y="-1" relative="1" as="geometry">
                        <mxPoint x="-72" y="-17" as="offset"/>
                    </mxGeometry>
                </mxCell>
                <mxCell id="35" value="" style="endArrow=classic;html=1;fontSize=16;labelBackgroundColor=none;rounded=0;" parent="1" edge="1">
                    <mxGeometry width="50" height="50" relative="1" as="geometry">
                        <mxPoint x="440" y="630" as="sourcePoint"/>
                        <mxPoint x="740" y="630" as="targetPoint"/>
                    </mxGeometry>
                </mxCell>
                <mxCell id="36" value="" style="endArrow=classic;html=1;fontSize=16;labelBackgroundColor=none;rounded=0;" parent="1" edge="1">
                    <mxGeometry width="50" height="50" relative="1" as="geometry">
                        <mxPoint x="740" y="660" as="sourcePoint"/>
                        <mxPoint x="440" y="660" as="targetPoint"/>
                    </mxGeometry>
                </mxCell>
                <mxCell id="37" value="Поиск необходимых данных" style="edgeLabel;html=1;align=center;verticalAlign=middle;resizable=0;points=[];fontSize=16;rounded=0;labelBackgroundColor=none;" parent="36" vertex="1" connectable="0">
                    <mxGeometry x="-0.0352" y="2" relative="1" as="geometry">
                        <mxPoint y="-52" as="offset"/>
                    </mxGeometry>
                </mxCell>
                <mxCell id="38" value="Данные" style="endArrow=classic;html=1;fontSize=16;labelBackgroundColor=none;rounded=0;" parent="1" edge="1">
                    <mxGeometry y="-20" width="50" height="50" relative="1" as="geometry">
                        <mxPoint x="440" y="690" as="sourcePoint"/>
                        <mxPoint x="140" y="690" as="targetPoint"/>
                        <mxPoint as="offset"/>
                    </mxGeometry>
                </mxCell>
                <mxCell id="39" value="Схема базы данных" style="swimlane;whiteSpace=wrap;html=1;fontSize=16;rounded=0;labelBackgroundColor=none;fillColor=none;" parent="1" vertex="1">
                    <mxGeometry x="910" y="-530" width="630" height="440" as="geometry"/>
                </mxCell>
                <mxCell id="59" value="Дисциплина" style="swimlane;fontStyle=0;childLayout=stackLayout;horizontal=1;startSize=30;horizontalStack=0;resizeParent=1;resizeParentMax=0;resizeLast=0;collapsible=1;marginBottom=0;whiteSpace=wrap;html=1;fontSize=16;rounded=0;labelBackgroundColor=none;fillColor=none;" parent="39" vertex="1">
                    <mxGeometry x="229" y="32" width="170" height="210" as="geometry"/>
                </mxCell>
                <mxCell id="62" value="Название (PK)" style="text;strokeColor=none;fillColor=none;align=left;verticalAlign=middle;spacingLeft=4;spacingRight=4;overflow=hidden;points=[[0,0.5],[1,0.5]];portConstraint=eastwest;rotatable=0;whiteSpace=wrap;html=1;fontSize=16;rounded=0;labelBackgroundColor=none;" parent="59" vertex="1">
                    <mxGeometry y="30" width="170" height="30" as="geometry"/>
                </mxCell>
                <mxCell id="61" value="id&lt;br&gt;Преподавателя (PK)" style="text;strokeColor=none;fillColor=none;align=left;verticalAlign=middle;spacingLeft=4;spacingRight=4;overflow=hidden;points=[[0,0.5],[1,0.5]];portConstraint=eastwest;rotatable=0;whiteSpace=wrap;html=1;fontSize=16;rounded=0;labelBackgroundColor=none;" parent="59" vertex="1">
                    <mxGeometry y="60" width="170" height="60" as="geometry"/>
                </mxCell>
                <mxCell id="83" value="Семестр (PK)" style="text;strokeColor=none;fillColor=none;align=left;verticalAlign=middle;spacingLeft=4;spacingRight=4;overflow=hidden;points=[[0,0.5],[1,0.5]];portConstraint=eastwest;rotatable=0;whiteSpace=wrap;html=1;fontSize=16;rounded=0;labelBackgroundColor=none;" parent="59" vertex="1">
                    <mxGeometry y="120" width="170" height="30" as="geometry"/>
                </mxCell>
                <mxCell id="92" value="id Программы (PK)" style="text;strokeColor=none;fillColor=none;align=left;verticalAlign=middle;spacingLeft=4;spacingRight=4;overflow=hidden;points=[[0,0.5],[1,0.5]];portConstraint=eastwest;rotatable=0;whiteSpace=wrap;html=1;fontSize=16;rounded=0;labelBackgroundColor=none;" parent="59" vertex="1">
                    <mxGeometry y="150" width="170" height="30" as="geometry"/>
                </mxCell>
                <mxCell id="60" value="id (UNIQ)" style="text;strokeColor=none;fillColor=none;align=left;verticalAlign=middle;spacingLeft=4;spacingRight=4;overflow=hidden;points=[[0,0.5],[1,0.5]];portConstraint=eastwest;rotatable=0;whiteSpace=wrap;html=1;fontSize=16;rounded=0;labelBackgroundColor=none;" parent="59" vertex="1">
                    <mxGeometry y="180" width="170" height="30" as="geometry"/>
                </mxCell>
                <mxCell id="68" value="Результат" style="swimlane;fontStyle=0;childLayout=stackLayout;horizontal=1;startSize=30;horizontalStack=0;resizeParent=1;resizeParentMax=0;resizeLast=0;collapsible=1;marginBottom=0;whiteSpace=wrap;html=1;fontSize=16;rounded=0;labelBackgroundColor=none;fillColor=none;" parent="39" vertex="1">
                    <mxGeometry x="479" y="252" width="140" height="170" as="geometry"/>
                </mxCell>
                <mxCell id="69" value="id Студента (PK)" style="text;strokeColor=none;fillColor=none;align=left;verticalAlign=middle;spacingLeft=4;spacingRight=4;overflow=hidden;points=[[0,0.5],[1,0.5]];portConstraint=eastwest;rotatable=0;whiteSpace=wrap;html=1;fontSize=16;rounded=0;labelBackgroundColor=none;" parent="68" vertex="1">
                    <mxGeometry y="30" width="140" height="30" as="geometry"/>
                </mxCell>
                <mxCell id="70" value="id Показателя (PK)" style="text;strokeColor=none;fillColor=none;align=left;verticalAlign=middle;spacingLeft=4;spacingRight=4;overflow=hidden;points=[[0,0.5],[1,0.5]];portConstraint=eastwest;rotatable=0;whiteSpace=wrap;html=1;fontSize=16;rounded=0;labelBackgroundColor=none;" parent="68" vertex="1">
                    <mxGeometry y="60" width="140" height="40" as="geometry"/>
                </mxCell>
                <mxCell id="71" value="Значение" style="text;strokeColor=none;fillColor=none;align=left;verticalAlign=middle;spacingLeft=4;spacingRight=4;overflow=hidden;points=[[0,0.5],[1,0.5]];portConstraint=eastwest;rotatable=0;whiteSpace=wrap;html=1;fontSize=16;rounded=0;labelBackgroundColor=none;" parent="68" vertex="1">
                    <mxGeometry y="100" width="140" height="30" as="geometry"/>
                </mxCell>
                <mxCell id="84" value="Реальные данные?" style="text;strokeColor=none;fillColor=none;align=left;verticalAlign=middle;spacingLeft=4;spacingRight=4;overflow=hidden;points=[[0,0.5],[1,0.5]];portConstraint=eastwest;rotatable=0;whiteSpace=wrap;html=1;fontSize=16;rounded=0;labelBackgroundColor=none;" parent="68" vertex="1">
                    <mxGeometry y="130" width="140" height="40" as="geometry"/>
                </mxCell>
                <mxCell id="73" value="Показатель" style="swimlane;fontStyle=0;childLayout=stackLayout;horizontal=1;startSize=30;horizontalStack=0;resizeParent=1;resizeParentMax=0;resizeLast=0;collapsible=1;marginBottom=0;whiteSpace=wrap;html=1;fontSize=16;rounded=0;labelBackgroundColor=none;fillColor=none;" parent="39" vertex="1">
                    <mxGeometry x="244" y="252" width="140" height="170" as="geometry"/>
                </mxCell>
                <mxCell id="76" value="Название (PK)" style="text;strokeColor=none;fillColor=none;align=left;verticalAlign=middle;spacingLeft=4;spacingRight=4;overflow=hidden;points=[[0,0.5],[1,0.5]];portConstraint=eastwest;rotatable=0;whiteSpace=wrap;html=1;fontSize=16;rounded=0;labelBackgroundColor=none;" parent="73" vertex="1">
                    <mxGeometry y="30" width="140" height="30" as="geometry"/>
                </mxCell>
                <mxCell id="93" value="id Группы показателей (PK)" style="text;strokeColor=none;fillColor=none;align=left;verticalAlign=middle;spacingLeft=4;spacingRight=4;overflow=hidden;points=[[0,0.5],[1,0.5]];portConstraint=eastwest;rotatable=0;whiteSpace=wrap;html=1;fontSize=16;rounded=0;labelBackgroundColor=none;" parent="73" vertex="1">
                    <mxGeometry y="60" width="140" height="40" as="geometry"/>
                </mxCell>
                <mxCell id="75" value="id Дисциплины (PK)" style="text;strokeColor=none;fillColor=none;align=left;verticalAlign=middle;spacingLeft=4;spacingRight=4;overflow=hidden;points=[[0,0.5],[1,0.5]];portConstraint=eastwest;rotatable=0;whiteSpace=wrap;html=1;fontSize=16;rounded=0;labelBackgroundColor=none;" parent="73" vertex="1">
                    <mxGeometry y="100" width="140" height="40" as="geometry"/>
                </mxCell>
                <mxCell id="74" value="id (UNIQ)" style="text;strokeColor=none;fillColor=none;align=left;verticalAlign=middle;spacingLeft=4;spacingRight=4;overflow=hidden;points=[[0,0.5],[1,0.5]];portConstraint=eastwest;rotatable=0;whiteSpace=wrap;html=1;fontSize=16;rounded=0;labelBackgroundColor=none;" parent="73" vertex="1">
                    <mxGeometry y="140" width="140" height="30" as="geometry"/>
                </mxCell>
                <mxCell id="86" value="Программа" style="swimlane;fontStyle=0;childLayout=stackLayout;horizontal=1;startSize=30;horizontalStack=0;resizeParent=1;resizeParentMax=0;resizeLast=0;collapsible=1;marginBottom=0;whiteSpace=wrap;html=1;fontSize=16;rounded=0;labelBackgroundColor=none;fillColor=none;" parent="39" vertex="1">
                    <mxGeometry x="32" y="32" width="162" height="150" as="geometry"/>
                </mxCell>
                <mxCell id="119" value="id Организации (PK)" style="text;strokeColor=none;fillColor=none;align=left;verticalAlign=middle;spacingLeft=4;spacingRight=4;overflow=hidden;points=[[0,0.5],[1,0.5]];portConstraint=eastwest;rotatable=0;whiteSpace=wrap;html=1;fontSize=16;" parent="86" vertex="1">
                    <mxGeometry y="30" width="162" height="30" as="geometry"/>
                </mxCell>
                <mxCell id="126" value="Код (PK)" style="text;strokeColor=none;fillColor=none;align=left;verticalAlign=middle;spacingLeft=4;spacingRight=4;overflow=hidden;points=[[0,0.5],[1,0.5]];portConstraint=eastwest;rotatable=0;whiteSpace=wrap;html=1;fontSize=16;rounded=0;labelBackgroundColor=none;" vertex="1" parent="86">
                    <mxGeometry y="60" width="162" height="30" as="geometry"/>
                </mxCell>
                <mxCell id="91" value="Название" style="text;strokeColor=none;fillColor=none;align=left;verticalAlign=middle;spacingLeft=4;spacingRight=4;overflow=hidden;points=[[0,0.5],[1,0.5]];portConstraint=eastwest;rotatable=0;whiteSpace=wrap;html=1;fontSize=16;rounded=0;labelBackgroundColor=none;" parent="86" vertex="1">
                    <mxGeometry y="90" width="162" height="30" as="geometry"/>
                </mxCell>
                <mxCell id="87" value="id (UNIQ)" style="text;strokeColor=none;fillColor=none;align=left;verticalAlign=middle;spacingLeft=4;spacingRight=4;overflow=hidden;points=[[0,0.5],[1,0.5]];portConstraint=eastwest;rotatable=0;whiteSpace=wrap;html=1;fontSize=16;rounded=0;labelBackgroundColor=none;" parent="86" vertex="1">
                    <mxGeometry y="120" width="162" height="30" as="geometry"/>
                </mxCell>
                <mxCell id="94" value="Группа" style="swimlane;fontStyle=0;childLayout=stackLayout;horizontal=1;startSize=30;horizontalStack=0;resizeParent=1;resizeParentMax=0;resizeLast=0;collapsible=1;marginBottom=0;whiteSpace=wrap;html=1;fontSize=16;rounded=0;labelBackgroundColor=none;fillColor=none;" parent="39" vertex="1">
                    <mxGeometry x="45.5" y="322" width="140" height="90" as="geometry"/>
                </mxCell>
                <mxCell id="95" value="id (PK)" style="text;strokeColor=none;fillColor=none;align=left;verticalAlign=middle;spacingLeft=4;spacingRight=4;overflow=hidden;points=[[0,0.5],[1,0.5]];portConstraint=eastwest;rotatable=0;whiteSpace=wrap;html=1;fontSize=16;rounded=0;labelBackgroundColor=none;" parent="94" vertex="1">
                    <mxGeometry y="30" width="140" height="30" as="geometry"/>
                </mxCell>
                <mxCell id="96" value="Название (UNIQ)" style="text;strokeColor=none;fillColor=none;align=left;verticalAlign=middle;spacingLeft=4;spacingRight=4;overflow=hidden;points=[[0,0.5],[1,0.5]];portConstraint=eastwest;rotatable=0;whiteSpace=wrap;html=1;fontSize=16;rounded=0;labelBackgroundColor=none;" parent="94" vertex="1">
                    <mxGeometry y="60" width="140" height="30" as="geometry"/>
                </mxCell>
                <mxCell id="100" value="" style="endArrow=classic;html=1;fontSize=16;exitX=1;exitY=0.5;exitDx=0;exitDy=0;entryX=0;entryY=0.5;entryDx=0;entryDy=0;labelBackgroundColor=none;rounded=0;" parent="39" source="87" target="92" edge="1">
                    <mxGeometry width="50" height="50" relative="1" as="geometry">
                        <mxPoint x="419" y="342" as="sourcePoint"/>
                        <mxPoint x="469" y="292" as="targetPoint"/>
                        <Array as="points">
                            <mxPoint x="211" y="137"/>
                            <mxPoint x="211" y="197"/>
                        </Array>
                    </mxGeometry>
                </mxCell>
                <mxCell id="101" value="" style="endArrow=classic;html=1;fontSize=16;exitX=1;exitY=0.5;exitDx=0;exitDy=0;entryX=0;entryY=0.5;entryDx=0;entryDy=0;labelBackgroundColor=none;rounded=0;" parent="39" source="95" target="93" edge="1">
                    <mxGeometry width="50" height="50" relative="1" as="geometry">
                        <mxPoint x="419" y="332" as="sourcePoint"/>
                        <mxPoint x="469" y="282" as="targetPoint"/>
                        <Array as="points">
                            <mxPoint x="209" y="367"/>
                            <mxPoint x="209" y="332"/>
                        </Array>
                    </mxGeometry>
                </mxCell>
                <mxCell id="102" value="" style="endArrow=classic;html=1;fontSize=16;exitX=1;exitY=0.5;exitDx=0;exitDy=0;entryX=1;entryY=0.5;entryDx=0;entryDy=0;labelBackgroundColor=none;rounded=0;" parent="39" source="60" target="75" edge="1">
                    <mxGeometry width="50" height="50" relative="1" as="geometry">
                        <mxPoint x="409" y="332" as="sourcePoint"/>
                        <mxPoint x="459" y="282" as="targetPoint"/>
                        <Array as="points">
                            <mxPoint x="429" y="227"/>
                            <mxPoint x="429" y="372"/>
                        </Array>
                    </mxGeometry>
                </mxCell>
                <mxCell id="103" value="" style="endArrow=classic;html=1;fontSize=16;exitX=1;exitY=0.5;exitDx=0;exitDy=0;entryX=0;entryY=0.5;entryDx=0;entryDy=0;labelBackgroundColor=none;rounded=0;" parent="39" source="74" target="70" edge="1">
                    <mxGeometry width="50" height="50" relative="1" as="geometry">
                        <mxPoint x="409" y="332" as="sourcePoint"/>
                        <mxPoint x="459" y="282" as="targetPoint"/>
                        <Array as="points">
                            <mxPoint x="449" y="407"/>
                            <mxPoint x="449" y="332"/>
                        </Array>
                    </mxGeometry>
                </mxCell>
                <mxCell id="121" value="Организация" style="swimlane;fontStyle=0;childLayout=stackLayout;horizontal=1;startSize=30;horizontalStack=0;resizeParent=1;resizeParentMax=0;resizeLast=0;collapsible=1;marginBottom=0;whiteSpace=wrap;html=1;fontSize=16;fillColor=none;" parent="39" vertex="1">
                    <mxGeometry x="43" y="197" width="140" height="90" as="geometry"/>
                </mxCell>
                <mxCell id="122" value="id (PK)" style="text;strokeColor=none;fillColor=none;align=left;verticalAlign=middle;spacingLeft=4;spacingRight=4;overflow=hidden;points=[[0,0.5],[1,0.5]];portConstraint=eastwest;rotatable=0;whiteSpace=wrap;html=1;fontSize=16;" parent="121" vertex="1">
                    <mxGeometry y="30" width="140" height="30" as="geometry"/>
                </mxCell>
                <mxCell id="123" value="Название (UNIQ)" style="text;strokeColor=none;fillColor=none;align=left;verticalAlign=middle;spacingLeft=4;spacingRight=4;overflow=hidden;points=[[0,0.5],[1,0.5]];portConstraint=eastwest;rotatable=0;whiteSpace=wrap;html=1;fontSize=16;" parent="121" vertex="1">
                    <mxGeometry y="60" width="140" height="30" as="geometry"/>
                </mxCell>
                <mxCell id="125" value="" style="endArrow=classic;html=1;fontSize=16;entryX=0;entryY=0.5;entryDx=0;entryDy=0;exitX=0;exitY=0.5;exitDx=0;exitDy=0;rounded=0;" parent="39" source="122" target="119" edge="1">
                    <mxGeometry width="50" height="50" relative="1" as="geometry">
                        <mxPoint x="172" y="185" as="sourcePoint"/>
                        <mxPoint x="222" y="135" as="targetPoint"/>
                        <Array as="points">
                            <mxPoint x="10" y="242"/>
                            <mxPoint x="10" y="77"/>
                        </Array>
                    </mxGeometry>
                </mxCell>
                <mxCell id="40" value="" style="endArrow=classic;html=1;fontSize=16;entryX=0;entryY=1;entryDx=0;entryDy=0;exitX=1;exitY=0;exitDx=0;exitDy=0;labelBackgroundColor=none;rounded=0;" parent="1" source="10" target="39" edge="1">
                    <mxGeometry width="50" height="50" relative="1" as="geometry">
                        <mxPoint x="860" y="170" as="sourcePoint"/>
                        <mxPoint x="910" y="120" as="targetPoint"/>
                    </mxGeometry>
                </mxCell>
                <mxCell id="41" value="Процесс работы" style="swimlane;whiteSpace=wrap;html=1;fontSize=16;rounded=0;labelBackgroundColor=none;fillColor=none;" parent="1" vertex="1">
                    <mxGeometry x="60" y="90" width="750" height="680" as="geometry"/>
                </mxCell>
                <mxCell id="104" value="" style="endArrow=classic;html=1;fontSize=16;entryX=0.5;entryY=1;entryDx=0;entryDy=0;labelBackgroundColor=none;rounded=0;" parent="1" target="105" edge="1">
                    <mxGeometry width="50" height="50" relative="1" as="geometry">
                        <mxPoint x="440" y="130" as="sourcePoint"/>
                        <mxPoint x="490" y="-40" as="targetPoint"/>
                    </mxGeometry>
                </mxCell>
                <mxCell id="105" value="Архитектура" style="swimlane;whiteSpace=wrap;html=1;fontSize=16;rounded=0;labelBackgroundColor=none;fillColor=none;" parent="1" vertex="1">
                    <mxGeometry x="340" y="-320" width="200" height="200" as="geometry"/>
                </mxCell>
                <mxCell id="106" value="Скоро" style="text;html=1;strokeColor=none;fillColor=none;align=center;verticalAlign=middle;whiteSpace=wrap;rounded=0;fontSize=16;labelBackgroundColor=none;" parent="105" vertex="1">
                    <mxGeometry x="70" y="90" width="60" height="30" as="geometry"/>
                </mxCell>
                <mxCell id="107" value="" style="endArrow=classic;html=1;fontSize=16;exitX=0;exitY=0;exitDx=0;exitDy=0;entryX=0.5;entryY=1;entryDx=0;entryDy=0;labelBackgroundColor=none;rounded=0;" parent="1" source="3" target="108" edge="1">
                    <mxGeometry width="50" height="50" relative="1" as="geometry">
                        <mxPoint x="280" y="130" as="sourcePoint"/>
                        <mxPoint y="-20" as="targetPoint"/>
                    </mxGeometry>
                </mxCell>
                <mxCell id="108" value="Сайт организации, взаимодействуйющий с сервером по API" style="rounded=0;whiteSpace=wrap;html=1;fontSize=16;labelBackgroundColor=none;fillColor=none;" parent="1" vertex="1">
                    <mxGeometry x="-100" y="-120" width="170" height="70" as="geometry"/>
                </mxCell>
            </root>
        </mxGraphModel>
    </diagram>
</mxfile>